# xmcd
#
# Track frame offsets:
#	150
#	11530
#	21433
#	32806
#	44044
#	56549
#	69600
#	82518
#	91873
#	102526
#	115429
#	130057
#
# Disc length: 1902 seconds
#
# Revision: 0
# Processed by: cddbd v1.5.2PL0 Copyright (c) Steve Scherf et al.
# Submitted via: EasyCDDAExtractor 16.0.1.1
#
DISCID=9b076c0c
DTITLE=Philomena Begley - Truck Driving Woman
DYEAR=1972
DGENRE=Truckcountry
TTITLE0=Ramblin' Man
TTITLE1=Truck Drivin' Woman
TTITLE2=I'll Be All Smiles Tonight
TTITLE3=I Really Think I'm Crying
TTITLE4=How Can I Face Tomorrow
TTITLE5=Here Today Gone Tomorrow
TTITLE6=Never Again
TTITLE7=Darling Are You Ever Coming Home
TTITLE8=Philsdelphia Lawyer
TTITLE9=A Village In County Tyrone
TTITLE10=My Little Son
TTITLE11=Old Ardboe
EXTD=
EXTT0=
EXTT1=
EXTT2=
EXTT3=
EXTT4=
EXTT5=
EXTT6=
EXTT7=
EXTT8=
EXTT9=
EXTT10=
EXTT11=
PLAYORDER=
